<svg xmlns="http://www.w3.org/2000/svg" width="184" height="36" viewBox="0 0 184 36">
    <g fill="#F34C2A" fill-rule="nonzero">
        <path d="M88.395 20.662l-7.912 14.56h2l2.204-4.196h5.624l.752 4.196h1.852l-2.872-14.56h-1.648zm-2.868 8.8l3.368-6.4 1.148 6.4h-4.516zM106.475 20.662l-1.968 11.352-5.212-11.352h-1.82l-2.528 14.56h1.888l1.96-11.3 5.2 11.3h1.82l2.532-14.56zM115.899 20.662l-7.912 14.56h2l2.204-4.196h5.624l.752 4.196h1.848l-2.88-14.56h-1.636zm-2.868 8.8l3.368-6.4 1.148 6.4h-4.516zM126.87 20.662h-1.891l-2.532 14.56h8.584l.28-1.572h-6.704zM136.37 27.962l-2.391-7.3h-2.04l3.252 9.02-.96 5.54h1.868l.932-5.332 6.532-9.228h-2.244zM145.507 20.662l-1.164 1.568h4.532l-2.252 12.992h1.872l2.248-12.992h4.532l.28-1.568zM155.347 35.222h1.868l2.532-14.56h-1.872zM162.223 28.922l.22-1.512a7.624 7.624 0 0 1 1.636-3.976 3.872 3.872 0 0 1 3.156-1.404h.328c1.392.15 2.18 1.092 2.364 2.828h1.876a5 5 0 0 0-1.24-3.092 4.348 4.348 0 0 0-3.248-1.324 5.808 5.808 0 0 0-4.468 1.844c-1.224 1.264-1.992 2.99-2.304 5.176l-.172 1.2a8.472 8.472 0 0 0-.068 1.6c.026.914.237 1.814.62 2.644.333.75.878 1.388 1.568 1.832.71.434 1.527.664 2.36.664a5.664 5.664 0 0 0 5.852-4.428h-1.856a4.556 4.556 0 0 1-1.388 2.128 3.756 3.756 0 0 1-2.5.76 2.472 2.472 0 0 1-2.124-1.128 4.92 4.92 0 0 1-.656-2.924l.044-.888zM183.539 24.882a4.28 4.28 0 0 0-.48-2.268 3.808 3.808 0 0 0-1.576-1.564 5.116 5.116 0 0 0-2.352-.588 6.228 6.228 0 0 0-2.568.472 4.76 4.76 0 0 0-1.936 1.436 3.948 3.948 0 0 0-.828 2.14c-.128 1.6.781 2.847 2.728 3.74l.58.252 1.732.628c1.252.496 1.808 1.28 1.66 2.352a2.464 2.464 0 0 1-1.088 1.756 4 4 0 0 1-2.4.636 3.172 3.172 0 0 1-2.244-.8 2.5 2.5 0 0 1-.708-2.08h-1.88c-.057.791.124 1.581.52 2.268.41.683 1.01 1.23 1.728 1.576a5.56 5.56 0 0 0 2.504.584 6.72 6.72 0 0 0 2.656-.46 4.656 4.656 0 0 0 1.956-1.384c.484-.609.773-1.35.828-2.128.138-1.704-.73-2.99-2.608-3.86l-.752-.32-1.492-.528c-1.352-.517-1.962-1.273-1.828-2.268a2.496 2.496 0 0 1 1.06-1.8 3.712 3.712 0 0 1 2.292-.644 2.704 2.704 0 0 1 2 .76c.49.575.708 1.333.6 2.08l1.896.012zM96.239 2.262c-.926-.768-2.24-1.152-3.944-1.152h-5.328l-2.612 14.564h3.544l.932-5.152h1.972l1.656 5.152h3.784v-.172L94.21 9.674a5.552 5.552 0 0 0 2.324-1.636 4.596 4.596 0 0 0 .94-2.612 3.524 3.524 0 0 0-1.236-3.164zm-2.48 4.064c-.172.454-.487.84-.896 1.1a2.684 2.684 0 0 1-1.476.4H89.31l.728-4h2.4c.844.04 1.332.432 1.472 1.172.071.449.019.908-.152 1.328zM106.847 10.614c-.299 1.75-1.182 2.6-2.648 2.552a1.548 1.548 0 0 1-1.64-1.6 4.464 4.464 0 0 1 .02-.948l1.6-9.532h-3.44l-1.6 9.512a4.956 4.956 0 0 0 .376 2.724 4 4 0 0 0 1.724 1.852 5.796 5.796 0 0 0 2.76.684 6.18 6.18 0 0 0 4.244-1.38 5.96 5.96 0 0 0 2.036-3.888l1.62-9.504h-3.42l-1.632 9.528zM135.219 1.078l-1.004 5.788h-5.004l1.008-5.788h-3.432l-2.524 14.58h3.424l1.016-5.832 5-.012-1.008 5.844h3.404l2.532-14.58zM118.235 6.806L119.299.71l-6.944 9.152h5.776l-1.064 6.092 6.948-9.156zM32.099.846h-.088C31.135.786 13.295-.122.887 18.378c12.74 17.968 30.8 17.004 31.008 16.98 15.168-.112 25.14-9.276 30.9-17.096C57.223 10.434 47.335.958 32.099.846zm-1.2 31.528V20.262H23.35l9.532-16.48v12.12h7.904l-9.888 16.472z"/>
    </g>
</svg>
