<svg xmlns="http://www.w3.org/2000/svg" width="32" height="32" viewBox="0 0 32 32">
    <path fill="#5A6A7E" fill-rule="evenodd" d="M30.763 9.753a15.416 15.416 0 0 0-3.32-4.927 15.44 15.44 0 0 0-4.927-3.32 15.38 15.38 0 0 0-6.034-1.22A15.462 15.462 0 0 0 5.52 4.825a15.44 15.44 0 0 0-4.54 10.96c0 2.092.41 4.122 1.219 6.035a15.44 15.44 0 0 0 3.321 4.926 15.416 15.416 0 0 0 4.926 3.321 15.405 15.405 0 0 0 6.034 1.219c2.092 0 4.122-.411 6.035-1.219a15.44 15.44 0 0 0 4.926-3.321 15.416 15.416 0 0 0 3.321-4.926 15.405 15.405 0 0 0 1.218-6.034 15.327 15.327 0 0 0-1.217-6.034zm-1.959 10.969l-.804.302c-.813.306-1.627.58-2.443.822.305-1.65.488-3.301.545-4.944h3.603a13.127 13.127 0 0 1-.9 3.82zm-7.387 7.387a13.13 13.13 0 0 1-3.821.902v-3.603a33.578 33.578 0 0 0 4.945-.544c-.241.814-.516 1.629-.822 2.442l-.302.803zm-10.173-.803a35.207 35.207 0 0 1-.821-2.442c1.65.304 3.3.487 4.944.544v3.603a13.165 13.165 0 0 1-3.82-.902l-.303-.803zm-7.085-6.584c-.48-1.197-.79-2.48-.902-3.82H6.86c.057 1.644.239 3.294.545 4.944a35.498 35.498 0 0 1-2.443-.822l-.803-.302zm0-9.87l.803-.304c.814-.306 1.628-.58 2.443-.82-.305 1.65-.488 3.3-.545 4.943H3.257c.112-1.339.422-2.622.902-3.819zm7.388-7.388c1.197-.48 2.48-.79 3.82-.902v3.603c-1.645.057-3.295.24-4.944.545.24-.816.514-1.63.82-2.443l.304-.803zm10.173.803c.305.814.58 1.627.822 2.443a33.55 33.55 0 0 0-4.945-.545V2.562c1.34.112 2.624.423 3.82.902l.303.803zM17.597 8.41c1.855.067 3.71.302 5.56.703.4 1.85.635 3.705.702 5.56h-6.262V8.408zm-2.23 0v6.263H9.103c.067-1.855.302-3.71.703-5.56 1.85-.4 3.705-.636 5.56-.703zm-6.263 8.493h6.262v6.263a31.594 31.594 0 0 1-5.559-.703c-.4-1.85-.636-3.705-.703-5.56zm8.493 6.263v-6.263h6.262a31.594 31.594 0 0 1-.703 5.56c-1.85.4-3.704.634-5.559.702zm8.506-8.493a33.536 33.536 0 0 0-.545-4.944c.815.241 1.63.514 2.443.82l.803.304c.481 1.197.792 2.48.902 3.82h-3.603zm1.043-6.787c-.71-.23-1.423-.44-2.137-.626a36.73 36.73 0 0 0-.627-2.136 13.36 13.36 0 0 1 2.764 2.762zM8.58 5.123c-.231.711-.44 1.423-.626 2.136-.713.186-1.426.395-2.137.626A13.388 13.388 0 0 1 8.58 5.123zM5.817 23.687a36.73 36.73 0 0 0 2.137.628c.186.713.395 1.425.626 2.136a13.36 13.36 0 0 1-2.763-2.764zm18.565 2.764a36.4 36.4 0 0 0 .627-2.136 36.4 36.4 0 0 0 2.137-.628 13.331 13.331 0 0 1-2.764 2.764z"/>
</svg>
