<svg width="41" height="41" viewBox="0 0 41 41" fill="none" xmlns="http://www.w3.org/2000/svg">
<circle cx="20.5" cy="20.5" r="20.5" fill="#FFC341"/>
<g clip-path="url(#clip0)">
<path d="M16.7855 25.4458C15.523 25.4458 14.4997 26.4691 14.4997 27.7316C14.4997 28.9939 15.523 30.0173 16.7855 30.0173C18.0478 30.0173 19.0711 28.9939 19.0711 27.7316C19.0698 26.4698 18.0473 25.4471 16.7855 25.4458ZM16.7855 29.1769C15.9872 29.1769 15.34 28.5298 15.34 27.7316C15.34 26.9333 15.9872 26.2861 16.7855 26.2861C17.5837 26.2861 18.2308 26.9333 18.2308 27.7316C18.2308 28.5298 17.5837 29.1769 16.7855 29.1769Z" fill="black"/>
<path d="M29.2435 15.8536H14.4073L14.1048 14.1603C13.9184 13.1179 13.1014 12.3025 12.0586 12.1182L10.9619 11.925C10.7333 11.8843 10.5152 12.0368 10.4745 12.2653C10.434 12.4939 10.5863 12.712 10.8149 12.7527L11.9157 12.9459C12.6103 13.069 13.154 13.6128 13.2771 14.3073L14.7645 22.698C14.9401 23.702 15.8124 24.4344 16.8316 24.4334H25.6551C26.5821 24.4362 27.4008 23.8294 27.6678 22.9418L29.6426 16.3955C29.6792 16.2679 29.6561 16.1303 29.5796 16.0217C29.4997 15.9165 29.3754 15.8544 29.2435 15.8536ZM26.8653 22.6938C26.7067 23.2269 26.2155 23.5916 25.6594 23.5888H16.8359C16.2239 23.5904 15.7 23.1501 15.5964 22.5467L14.5586 16.6897H28.6803L26.8653 22.6938Z" fill="black"/>
<path d="M25.609 25.4458C24.3466 25.4458 23.3232 26.4691 23.3232 27.7316C23.3232 28.9939 24.3466 30.0173 25.609 30.0173C26.8714 30.0173 27.8947 28.9939 27.8947 27.7316C27.8934 26.4698 26.8709 25.4471 25.609 25.4458ZM25.609 29.1769C24.8107 29.1769 24.1636 28.5298 24.1636 27.7316C24.1636 26.9333 24.8107 26.2861 25.609 26.2861C26.4072 26.2861 27.0544 26.9333 27.0544 27.7316C27.0544 28.5298 26.4072 29.1769 25.609 29.1769Z" fill="black"/>
</g>
<defs>
<clipPath id="clip0">
<rect x="10.4681" y="11.3403" width="19.1915" height="19.1915" fill="white"/>
</clipPath>
</defs>
</svg>
