<svg width="41" height="41" viewBox="0 0 41 41" fill="none" xmlns="http://www.w3.org/2000/svg">
<circle cx="20.5" cy="20.5" r="20.5" fill="#FFC341"/>
<path d="M29.4678 13.7682C28.4321 12.628 26.9952 12 25.4219 12C23.2092 12 21.8083 13.2822 21.0227 14.3578C20.8189 14.6369 20.6456 14.9168 20.5 15.1801C20.3544 14.9168 20.1811 14.6369 19.9773 14.3578C19.1917 13.2822 17.7908 12 15.5781 12C14.0048 12 12.5679 12.628 11.5321 13.7683C10.5442 14.856 10 16.3128 10 17.8702C10 19.5656 10.6822 21.1424 12.147 22.8326C13.4561 24.3431 15.3394 25.9002 17.5202 27.7032C18.3329 28.3751 19.1732 29.0699 20.0679 29.8294L20.0948 29.8522C20.2108 29.9508 20.3554 30 20.5 30C20.6446 30 20.7892 29.9507 20.9052 29.8522L20.9321 29.8294C21.8268 29.0699 22.6671 28.3752 23.4799 27.7032C25.6606 25.9003 27.5439 24.3432 28.853 22.8326C30.3178 21.1424 31 19.5656 31 17.8702C31 16.3128 30.4558 14.856 29.4678 13.7682ZM22.6817 26.7946C21.9812 27.3737 21.2602 27.9698 20.5 28.611C19.7398 27.9699 19.0188 27.3738 18.3181 26.7945C14.0501 23.2658 11.2305 20.9347 11.2305 17.8702C11.2305 16.6036 11.6654 15.4271 12.4553 14.5576C13.2542 13.6782 14.3632 13.1938 15.5781 13.1938C17.2651 13.1938 18.3555 14.2021 18.9732 15.048C19.5273 15.8066 19.8164 16.5714 19.915 16.865C19.9975 17.1107 20.2336 17.277 20.5 17.277C20.7664 17.277 21.0025 17.1107 21.085 16.865C21.1836 16.5714 21.4727 15.8066 22.0268 15.048C22.6445 14.2021 23.7349 13.1938 25.4219 13.1938C26.6368 13.1938 27.7458 13.6782 28.5447 14.5576C29.3346 15.4271 29.7695 16.6036 29.7695 17.8702C29.7695 20.9347 26.9499 23.2658 22.6817 26.7946Z" fill="black"/>
</svg>
