<svg width="49" height="53" viewBox="0 0 49 53" fill="none" xmlns="http://www.w3.org/2000/svg">
<path d="M12.3189 29.4173C15.3045 29.4173 18.2786 28.5196 20.9192 26.8331L21.1577 26.6792L20.1882 25.1672L19.9484 25.3211C15.6687 28.0617 10.4414 28.3849 6.62988 26.1431C5.06173 25.2317 3.79164 23.885 2.97356 22.2662C2.06428 20.481 1.67826 18.3842 1.81933 16.0321C1.9681 13.6506 2.74656 11.5024 4.07007 9.81985C5.20674 8.35756 6.76231 7.27667 8.52922 6.72139C11.2224 5.90959 13.8156 6.62777 15.3045 8.5938L15.4751 8.8208L16.9076 7.73583L16.7358 7.51011C14.7813 4.9285 11.4379 3.96793 8.01495 5.0016C5.8958 5.66436 4.02924 6.9578 2.66448 8.70922C1.11397 10.6753 0.204698 13.1735 0.0328472 15.9206C-0.290336 21.0851 1.78342 25.3749 5.71933 27.6911C7.64047 28.8209 9.92071 29.4173 12.3189 29.4173Z" fill="#4B97B1"/>
<path d="M21.1321 28.9288L22.8352 29.4854L22.9225 29.2148C23.969 26.0086 24.4114 22.9012 24.2408 19.981C24.3858 20.0131 24.5307 20.049 24.6756 20.0875L24.95 20.1593L25.4079 18.4228L25.1334 18.351C24.7692 18.2548 24.4024 18.1727 24.0395 18.1048C23.5496 15.0268 22.2889 12.4247 20.5653 10.9563C19.202 9.79436 17.7066 9.49426 16.4614 10.1329C15.7432 10.501 15.2507 11.2179 14.9968 12.2605C14.5736 13.9944 14.8198 16.7287 15.6521 19.6078C15.163 19.9208 14.7123 20.2901 14.3094 20.7082L14.1183 20.9185L15.4469 22.1228L15.638 21.9163C15.8251 21.7268 16.0271 21.5527 16.2421 21.3956C16.7871 22.8576 17.4335 24.1478 18.0798 25.0545L18.244 25.2866L19.7073 24.2452L19.5419 24.0144C18.9211 23.141 18.3274 21.9214 17.8182 20.4735C19.2649 19.8377 20.8475 19.5732 22.4223 19.704C22.6416 22.4613 22.2261 25.5495 21.2142 28.6531L21.1321 28.9288ZM22.185 17.8919C20.51 17.8018 18.8362 18.0912 17.2886 18.7383C16.6358 16.3016 16.428 13.9996 16.7474 12.6889C16.8756 12.1887 17.0616 11.8489 17.2873 11.7322C17.4549 11.647 17.6405 11.6031 17.8285 11.6039C18.3017 11.6039 18.8545 11.8502 19.4059 12.3234C20.0241 12.8556 21.5181 14.4407 22.185 17.8919Z" fill="#4B97B1"/>
<path d="M33.5592 16.6671C33.7875 18.6524 34.3415 20.2683 35.2097 21.4841C36.278 22.9781 37.7952 23.8348 39.7176 24.0323L39.9997 24.0606L40.1831 22.2741L39.901 22.2459C38.4903 22.1009 37.4374 21.511 36.6717 20.4401C35.3354 18.5729 35.1661 15.6103 35.261 13.4545C35.325 11.9851 35.5086 10.5234 35.8099 9.08384L35.8715 8.81581L34.1491 8.36694L31.0147 18.9371L24.8717 10.3022L23.3687 11.1845L23.4802 11.4205C24.9294 14.4754 26.8839 20.1182 25.9605 22.2548C25.8987 22.4239 25.7987 22.5763 25.6684 22.7004C25.538 22.8246 25.3808 22.917 25.209 22.9705L25.0218 23.0307L24.9371 24.9108L25.2808 24.857C26.3427 24.689 27.2558 23.7746 27.6085 22.9576C28.1741 21.6495 28.1087 19.6386 27.4148 16.9659L30.7223 21.6162L32.1613 21.3763L33.5592 16.6671Z" fill="#4B97B1"/>
<path d="M36.9424 11.8296C36.0229 13.9726 36.2242 16.5747 37.4811 18.7947C38.4468 20.4991 40.3833 21.5584 42.534 21.5584H42.6623C43.8033 21.5435 44.9185 21.216 45.8863 20.6113C46.8541 20.0066 47.6375 19.1481 48.1512 18.1291C49.3465 15.8206 48.9207 12.5041 47.1394 10.2496C45.6517 8.36945 43.5113 7.61151 41.2682 8.17067C40.3098 8.39639 39.4183 8.84552 38.6666 9.48139C37.9148 10.1173 37.324 10.9219 36.9424 11.8296ZM38.593 12.5375C38.8678 11.886 39.2926 11.3086 39.8328 10.8524C40.373 10.3962 41.0134 10.0741 41.7017 9.91227C42.0296 9.82923 42.3663 9.78617 42.7046 9.78402C44.25 9.78402 45.2631 10.7728 45.7286 11.3627C47.0727 13.062 47.4266 15.6154 46.5546 17.3032C46.1874 18.0331 45.627 18.6483 44.9343 19.0818C44.2417 19.5153 43.4434 19.7505 42.6263 19.7617C41.0874 19.7924 39.7036 19.0755 39.0431 17.9098C38.0607 16.1771 37.8927 14.1688 38.593 12.5375Z" fill="#4B97B1"/>
<path d="M21.681 40.5263C21.6577 37.4102 21.8355 34.2959 22.2132 31.2027L22.2953 30.582L21.7412 30.2973C20.6982 29.8035 19.5607 29.541 18.4068 29.5278C16.6408 29.5009 14.0336 30.0408 11.6392 32.7814L11.1416 33.3521L11.62 33.9382C12.7524 35.3297 15.8855 39.8478 15.4443 42.2743L15.3943 42.5539L17.1602 42.8745L17.2115 42.5949C17.5052 40.9777 16.8717 38.8206 15.3276 36.1825C14.7666 35.2322 14.1544 34.313 13.4937 33.4291C16.2304 30.7205 19.0596 31.2142 20.3485 31.6567C20.0178 34.6057 19.8632 37.5717 19.8855 40.5391C19.983 47.3798 21.3655 51.3503 23.9894 52.3378L24.2549 52.4379L24.8884 50.7578L24.6306 50.6629C22.8352 49.9871 21.7669 46.2923 21.681 40.5263Z" fill="#4B97B1"/>
<path d="M30.8058 25.4557C30.1299 25.2775 29.304 25.6032 29.036 26.5702C28.9504 26.8488 28.9409 27.1452 29.0086 27.4287C29.0762 27.7122 29.2186 27.9724 29.4207 28.1823C29.6928 28.4552 30.0614 28.61 30.4467 28.6132C30.5711 28.6133 30.6949 28.5965 30.8148 28.5632C31.3278 28.4195 31.7125 28.0014 31.8613 27.4089C32.0575 26.6395 31.7151 25.6956 30.8058 25.4557Z" fill="#4B97B1"/>
<path d="M26.0503 28.8941C26.2881 29.103 26.5931 29.2191 26.9096 29.2211C27.1015 29.2177 27.2906 29.175 27.4653 29.0956C27.64 29.0162 27.7966 28.9018 27.9253 28.7595C28.1315 28.5578 28.2769 28.3023 28.345 28.0221C28.413 27.7418 28.4009 27.448 28.3101 27.1743C28.2158 26.8867 28.0477 26.6287 27.8227 26.4262C27.5977 26.2237 27.3236 26.0837 27.0276 26.0201C26.7953 25.9763 26.5553 25.9981 26.3347 26.083C26.114 26.168 25.9214 26.3127 25.7785 26.501C25.2103 27.2423 25.4527 28.3734 26.0503 28.8941Z" fill="#4B97B1"/>
<path d="M31.0314 38.6474C32.6692 37.8958 33.5105 36.9135 33.926 36.2209C34.8853 34.6294 34.7416 32.8134 33.5412 31.3655C31.9664 29.4636 29.5745 28.9993 27.2982 30.1548C25.9807 30.8511 24.9134 31.9411 24.2449 33.2729C23.5763 34.6046 23.34 36.1117 23.5687 37.5842C23.2455 37.5355 22.9275 37.479 22.6466 37.4213L22.3222 37.3508L22.276 39.168L22.5081 39.2168C23.1391 39.345 23.5867 39.4143 24.0971 39.4733C25.0526 41.8125 26.8031 42.7654 28.1177 43.1527C28.7914 43.3458 29.4893 43.4417 30.1901 43.4374C32.3626 43.4374 34.639 42.5756 36.1293 41.1892L36.3383 40.9956L35.1148 39.681L34.9071 39.8734C33.295 41.3726 30.6531 42.0267 28.623 41.429C27.6123 41.1437 26.7438 40.4928 26.1863 39.6028C28.0151 39.6041 29.6464 39.2822 31.0314 38.6474ZM32.16 32.5107C32.8602 33.3572 32.9436 34.3716 32.3883 35.295C31.3482 37.0212 28.8192 37.9189 25.4309 37.7689C24.8127 35.0295 26.294 32.68 28.1138 31.7566C29.622 30.9897 31.1353 31.2719 32.16 32.5107Z" fill="#4B97B1"/>
<path d="M45.2464 37.8637C44.9014 37.7355 44.5577 37.5803 44.2204 37.4187L43.9908 37.3071L43.8549 37.5239C41.8735 40.7159 38.8404 43.4232 35.3162 45.1353C31.5727 46.9577 27.5803 47.549 23.756 46.841L23.3046 46.7577L23.4444 47.2463C23.4533 47.2758 23.461 47.3053 23.47 47.3335C23.5939 47.7586 23.7522 48.1729 23.9432 48.5724L24.0099 48.7006L24.1574 48.7224C25.0743 48.8557 25.9997 48.9226 26.9263 48.9225C30.0427 48.9225 33.1321 48.1876 36.1075 46.7423C39.9908 44.8519 43.3175 41.8612 45.4695 38.3241L45.617 38.0805L45.2861 37.8804L45.2464 37.8637Z" fill="#4B97B1"/>
<path d="M19.4136 46.3435L19.3815 46.1691L19.2109 46.1203C15.6623 45.1162 12.342 42.9437 9.85915 40.0042C7.19418 36.8493 5.6706 32.8224 5.68086 28.9455V28.7775L5.53337 28.6954C5.43206 28.6402 5.32946 28.5838 5.22943 28.5248C4.91651 28.3401 4.59717 28.1311 4.2804 27.9028L3.85462 27.604L3.83025 28.1273C3.62762 32.6005 5.36922 37.4765 8.48691 41.17C11.3507 44.5596 15.1981 46.9911 19.3212 48.0145L19.597 48.0838L19.697 47.6798L19.6803 47.6119C19.5841 47.2181 19.5008 46.7936 19.4136 46.3435Z" fill="#4B97B1"/>
<path d="M47.5048 20.5913L47.1983 20.8478C46.8689 21.1245 46.5152 21.3709 46.1415 21.5839L45.9363 21.7006L46.0133 21.9225C47.2534 25.525 46.584 31.0511 45.6285 33.6546L45.54 33.8931L45.767 34.0072C46.1449 34.1957 46.5343 34.3602 46.9328 34.4997L47.1893 34.5921L47.2868 34.3356C48.3794 31.4218 49.2477 25.1582 47.6471 20.9671L47.5048 20.5913Z" fill="#4B97B1"/>
<path d="M15.0839 4.77597C15.331 4.91825 15.5703 5.07366 15.8008 5.24151L15.9778 5.36975L16.1471 5.23125C18.8608 3.02924 23.7355 1.97633 28.8692 2.48291C33.7977 2.96897 37.9748 4.79136 40.0331 7.34219L40.1614 7.49737L40.3512 7.43197C40.5961 7.34733 40.8193 7.27935 41.036 7.22549C41.2181 7.1806 41.4079 7.14085 41.6016 7.10878L42.0466 7.03568L41.7901 6.66633C39.6535 3.5884 34.6532 1.24789 29.0487 0.695142C23.2969 0.127007 17.8335 1.40307 14.7941 4.02957L14.5786 4.21553L15.0467 4.75673L15.0839 4.77597Z" fill="#4B97B1"/>
<path d="M40.6616 29.3995C41.9094 27.4183 42.6576 25.1636 42.8418 22.8294L42.8661 22.5191H42.5288C42.1424 22.5195 41.7565 22.49 41.3746 22.4306L41.0707 22.3818L41.0476 22.6883C40.7642 26.3562 39.0072 28.8955 37.5759 30.5499C37.4246 30.187 37.263 29.8189 37.0924 29.4508C36.1067 27.3244 34.9513 25.2808 33.6375 23.3398L33.5092 23.1513L31.6932 23.5656L31.9254 23.9093C33.2505 25.9216 34.4321 28.025 35.4611 30.2036C35.7458 30.8205 36.0011 31.4233 36.2204 31.9991C35.9934 32.2274 35.7715 32.4454 35.5612 32.6519L35.2136 32.9943L36.473 34.2768L36.8206 33.9356L36.8475 33.9087C37.3964 35.9722 37.3002 37.4163 36.5615 38.0985L36.3537 38.2909L37.5721 39.6093L37.7811 39.4169C39.2021 38.1024 39.3727 35.758 38.2864 32.4454C38.6878 32.0132 39.0559 31.5938 39.3881 31.1745C40.3207 33.2941 41.9209 35.0505 43.9447 36.1761C45.1545 36.8707 46.4766 37.3482 47.8511 37.5868L48.132 37.6253L48.3705 35.8465L48.0999 35.8119C48.0435 35.8029 42.3018 34.9411 40.6616 29.3995Z" fill="#4B97B1"/>
</svg>
