<svg width="10" height="11" viewBox="0 0 10 11" fill="none" xmlns="http://www.w3.org/2000/svg">
<path d="M9.82376 4.6149L0.409722 0.524281C0.29937 0.476312 0.170913 0.500746 0.0858155 0.585824C0.000737384 0.670922 -0.0236767 0.799379 0.0242725 0.90975L4.1149 10.3238C4.16157 10.4312 4.26743 10.5 4.38351 10.5C4.38904 10.5 4.3946 10.4998 4.40013 10.4995C4.52265 10.4926 4.62786 10.41 4.66374 10.2927L5.54093 7.42461C5.74384 6.76113 6.26111 6.24387 6.9246 6.04096L9.79268 5.16377C9.91001 5.12787 9.99257 5.02266 9.9995 4.90016C10.0064 4.77766 9.9363 4.66381 9.82376 4.6149ZM6.75325 5.48063C5.90325 5.74059 5.2406 6.40326 4.98064 7.25324L4.33575 9.36178L0.857866 1.35787L8.86177 4.83574L6.75325 5.48063Z" fill="#4B4B4B"/>
<path d="M9.82376 4.6149L0.409722 0.524281C0.29937 0.476312 0.170913 0.500746 0.0858155 0.585824C0.000737384 0.670922 -0.0236767 0.799379 0.0242725 0.90975L4.1149 10.3238C4.16157 10.4312 4.26743 10.5 4.38351 10.5C4.38904 10.5 4.3946 10.4998 4.40013 10.4995C4.52265 10.4926 4.62786 10.41 4.66374 10.2927L5.54093 7.42461C5.74384 6.76113 6.26111 6.24387 6.9246 6.04096L9.79268 5.16377C9.91001 5.12787 9.99257 5.02266 9.9995 4.90016C10.0064 4.77766 9.9363 4.66381 9.82376 4.6149ZM6.75325 5.48063C5.90325 5.74059 5.2406 6.40326 4.98064 7.25324L4.33575 9.36178L0.857866 1.35787L8.86177 4.83574L6.75325 5.48063Z" stroke="#727272"/>
</svg>
