<svg width="20" height="14" viewBox="0 0 20 14" fill="none" xmlns="http://www.w3.org/2000/svg">
<path d="M1 5.00001C2 3.50001 4.4 0.500011 10 0.500011C15.6 0.500011 18.1667 3.50001 19 5.00001M1 10C2.16667 8.50001 5.6 5.50001 10 5.50001C14.4 5.50001 17.5 8.16668 18.5 9.50001C17.3333 10.8333 14 13.5 10 13.5C6 13.5 2.33333 11.1667 1 10Z" stroke="#E6E6E6"/>
<circle cx="10" cy="9.50002" r="3.5" stroke="#E6E6E6"/>
<path fill-rule="evenodd" clip-rule="evenodd" d="M11.9994 9.45015C11.838 9.48286 11.671 9.50003 11.5 9.50003C10.3667 9.50003 9.40947 8.74589 9.10285 7.71205C8.44879 8.04088 8 8.71805 8 9.50003C8 10.6046 8.89543 11.5 10 11.5C11.1046 11.5 12 10.6046 12 9.50003C12 9.48335 11.9998 9.46673 11.9994 9.45015Z" fill="#E6E6E6"/>
</svg>
