<svg width="20" height="20" viewBox="0 0 20 20" fill="none" xmlns="http://www.w3.org/2000/svg"><g clip-path="url(#clip0)" fill="#000"><path d="M6.785 14.446a2.286 2.286 0 100 4.571 2.286 2.286 0 000-4.571zm0 3.731a1.445 1.445 0 110-2.89 1.445 1.445 0 010 2.89zM19.244 4.854H4.407L4.105 3.16a2.525 2.525 0 00-2.046-2.042L.962.925a.42.42 0 10-.147.828l1.1.193a1.68 1.68 0 011.362 1.361l1.487 8.391a2.097 2.097 0 002.068 1.735h8.823a2.095 2.095 0 002.013-1.491l1.975-6.546a.44.44 0 00-.063-.374.425.425 0 00-.336-.168zm-2.379 6.84c-.158.533-.65.898-1.206.895H6.836a1.254 1.254 0 01-1.24-1.042L4.56 5.69H18.68l-1.815 6.004zM15.609 14.446a2.286 2.286 0 100 4.572 2.286 2.286 0 000-4.572zm0 3.731a1.445 1.445 0 110-2.89 1.445 1.445 0 010 2.89z"/></g><defs><clipPath id="clip0"><path fill="#fff" transform="translate(.468 .34)" d="M0 0h19.192v19.192H0z"/></clipPath></defs></svg>