<svg width="74" height="78" viewBox="0 0 74 78" fill="none" xmlns="http://www.w3.org/2000/svg"><path d="M66.536 27.293L54.524 15.281 11.295 58.509l12.012 12.012 43.229-43.228zM16.815 67.802l-2.8-2.8s-6.947 4.794-7.805 5.644a3.509 3.509 0 004.961 4.961c.863-.85 5.644-7.805 5.644-7.805zM63.818 20.8L61.014 18s4.798-6.947 5.648-7.805a3.507 3.507 0 014.957 4.96c-.85.85-7.801 5.644-7.801 5.644z" stroke="#000" stroke-width="2" stroke-miterlimit="10"/><path d="M28.343 65.485C33.054 68.378 40.386 71.5 43.5 71.5c7.911.086.308-9 10.5-9s8.5-7.819 8.5-16c0-4.495 7.23-6.907 4.317-10.287M5.569 29.017C3.182 31.407 1 34.51 1 39.822 1 52.642 10 53 10 53M51.672 18.139S49.977 7.73 38.922 6.026C27.87 4.322 32.937 1 24.294 1S9.116 10.26 11.388 18.715c.993 3.678-.87 5.746-3.27 7.948" stroke="#000" stroke-width="2" stroke-miterlimit="10"/></svg>