<svg width="84" height="79" viewBox="0 0 84 79" fill="none" xmlns="http://www.w3.org/2000/svg"><path d="M41.873 10.912l-30.326 10.07 30.326 9.531 30.32-9.531-30.32-10.07z" stroke="#000" stroke-width="2" stroke-linejoin="round"/><path d="M11.547 20.982L1 33.445l29.778 9.582 11.095-12.514L52.448 43.19l30.13-9.523-10.385-12.685L81 10.912 50.342 1l-8.47 9.912L33.446 1 2.739 10.606l8.808 10.376zM41.789 27.587V10.912" stroke="#000" stroke-width="2" stroke-linejoin="round"/><path d="M11.547 20.982L1 33.445l29.778 9.582 11.095-12.514L52.448 43.19l30.13-9.523-10.385-12.685L81 10.912 50.342 1l-8.47 9.912L33.446 1 2.739 10.606l8.808 10.376z" stroke="#000" stroke-width="2" stroke-linejoin="round"/><path d="M11.547 36.84v30.093L41.873 78V30.513L30.778 43.028l-19.23-6.188zM52.448 43.19L41.873 30.513V78l30.32-11.067V36.951L52.448 43.19z" stroke="#000" stroke-width="2" stroke-linejoin="round"/></svg>