<svg width="72" height="76" viewBox="0 0 72 76" fill="none" xmlns="http://www.w3.org/2000/svg"><path d="M48.024 4.59l-32.63 8.536 4.545 17.373 32.63-8.536L48.023 4.59z" stroke="#000" stroke-width="2" stroke-miterlimit="10"/><path d="M26.564 55.822l-14.16-54.13L1.37 9.141M29.856 53.284l-5.54-21.173M71.629 54.107l-33.166 8.676" stroke="#000" stroke-width="2" stroke-miterlimit="10"/><path d="M29.033 75c5.383 0 9.747-4.364 9.747-9.748 0-5.383-4.364-9.747-9.747-9.747-5.384 0-9.748 4.364-9.748 9.747 0 5.384 4.364 9.748 9.748 9.748z" stroke="#000" stroke-width="2" stroke-miterlimit="10"/><path d="M19.94 30.501l6.624 25.32a9.745 9.745 0 0111.9 6.962l28.102-7.347-9.105-34.75L19.939 30.5z" stroke="#000" stroke-width="2" stroke-miterlimit="10"/><path d="M29.033 75c5.383 0 9.747-4.364 9.747-9.748 0-5.383-4.364-9.747-9.747-9.747-5.384 0-9.748 4.364-9.748 9.747 0 5.384 4.364 9.748 9.748 9.748z" stroke="#000" stroke-width="2" stroke-miterlimit="10"/></svg>