<svg width="73" height="77" viewBox="0 0 73 77" fill="none" xmlns="http://www.w3.org/2000/svg"><path d="M47.326 20.842s-8.873-7.845-8.873-15.919c0-4.259 4.83-3.834 4.83-3.834s-.526 6.714 3.056 11.084c.326-4.304 3.847-10.607 7.172-9.975 3.325.633.326 13.055.326 13.055s11.667-3.325 13.23 1.366c-6.323 3.913-9.648 4.675-9.648 4.675l14.038 4.826s1.999 5.345-5.496 4.37c-7.494-.975-18.635-9.648-18.635-9.648zM53.062 39.721l-3.663 3.41M45.115 31.82l-3.663 3.41M36.985 23.775l-3.664 3.414M28.985 15.856l-3.664 3.415M51.793 55.044c2.946-2.174 11.802-9.55 9.147-17.733" stroke="#000" stroke-width="2" stroke-linejoin="round"/><path d="M58.904 33.717s-5.887-7.62-11.578-12.875c-5.69-5.255-13.38-14.128-20.964-13.614-4.488.306-8.877 4.863-11.729 8.567M1.032 50.483s-1.265-25.95 12.096-35.381c13.686 7.082 10.064 15.094 20.169 27.022C43.402 54.053 46.029 51.1 50.96 54.363c4.932 3.264-3.382 7.47-4.08 12.879-.697 5.41-1.57 8.975-4.12 8.27-2.55-.707-4.349-7.683-4.349-7.683-3.985.478-1.603 7.682-6.38 7.682-1.073 0 .22-2.223-6.278-3.263-4.57-.719-23.633-1.991-24.587-18.856" stroke="#000" stroke-width="2" stroke-linejoin="round"/></svg>