<svg width="80" height="85" viewBox="0 0 80 85" fill="none" xmlns="http://www.w3.org/2000/svg"><path d="M37.906 7.845l7.525-5.913a4.392 4.392 0 016.925 2.245l5.758 20.057c.284.983.9 1.837 1.744 2.415l17.21 11.742a4.386 4.386 0 010 7.27L59.863 57.403a4.415 4.415 0 00-1.744 2.416l-5.757 20.056a4.39 4.39 0 01-6.925 2.246L29.095 69.296a4.405 4.405 0 00-2.837-.945l-20.713.685a4.39 4.39 0 01-4.255-5.87l7.09-19.689a4.372 4.372 0 000-2.963l-7.123-19.67a4.392 4.392 0 014.255-5.87l20.713.68a4.377 4.377 0 002.836-.945" stroke="#000" stroke-width="2" stroke-linejoin="round"/><path d="M49.648 70.034l-1.773 6.168L30.262 62.41l-22.302.737 7.582-21.134-7.582-21.13 22.302.738L47.875 7.826l6.202 21.584 18.468 12.602-18.468 12.607-1.433 4.987" stroke="#000" stroke-width="2" stroke-linejoin="round"/></svg>