<svg width="64" height="82" viewBox="0 0 64 82" fill="none" xmlns="http://www.w3.org/2000/svg"><path d="M22.22 74.332l3.843-20.441M17.216 44.4a111.24 111.24 0 008.847 9.49C68.35 38.684 67.742 14.76 54.37 8.608c-13.372-6.153-20.516 8.75-20.516 8.75S33.414.839 18.695 1.002C10.688 1.09 4.011 7.49 4.746 18.304c-.057 6.545 4.028 14.204 6.647 18.082M13.924 33.617v-6.752" stroke="#000" stroke-width="2" stroke-linejoin="round"/><path d="M18.81 22.538c0-2.702-1.321-12.808-1.321-12.808s-3.56.792-4.441 8.27c-.313 2.668-4.01 3.522-4.01 4.538a4.89 4.89 0 009.776 0h-.005zM26.063 74.332h-8.847v-39.2a1.933 1.933 0 00-3.292-1.356L1.11 46.382v6.545a1.461 1.461 0 002.451 1.096L9.725 48.3v26.048H1.11V81h24.952v-6.668zM37.811 36.856C26.834 52.47 44.308 67.47 53.186 60.906c8.878-6.562-14.864-15.792-13.707 13.434" stroke="#000" stroke-width="2" stroke-linejoin="round"/></svg>