<svg width="25" height="25" viewBox="0 0 25 25" fill="none" xmlns="http://www.w3.org/2000/svg"><path d="M24.303 8.031c0-.582-.038-1.165-.132-1.747-.131-.827-.376-1.616-.79-2.349-.488-.902-1.146-1.672-2.012-2.236-.77-.507-1.617-.789-2.5-.958a11.65 11.65 0 00-2.276-.207c-1.222 0-2.444-.018-3.667-.018-1.523 0-3.027.018-4.55.018-.696 0-1.41.038-2.087.17a7.356 7.356 0 00-2.351.77c-1.147.62-2.03 1.484-2.595 2.668-.451.92-.658 1.917-.752 2.931a28.92 28.92 0 00-.075 1.804v7.102c0 .883.018 1.748.169 2.612a7.39 7.39 0 00.77 2.33c.64 1.184 1.562 2.085 2.803 2.65.883.413 1.842.6 2.801.676.546.037 1.11.075 1.655.075 1.241.019 2.464 0 3.705 0v.019c1.354-.02 2.707-.02 4.061-.038.696 0 1.392-.038 2.088-.17a7.548 7.548 0 002.2-.713c.921-.47 1.692-1.09 2.275-1.935.564-.808.884-1.691 1.053-2.65.15-.751.188-1.503.207-2.254.019-.865.038-1.73.019-2.593.019-1.973 0-3.965-.019-5.957zm-2.069 6.82c0 .47-.018.94-.056 1.41-.019.413-.038.827-.075 1.259-.056.582-.094 1.165-.301 1.729a4.097 4.097 0 01-.846 1.465c-.301.32-.658.545-1.016.77-.489.301-1.015.451-1.58.527-.262.037-.526.094-.789.131-.15.019-.3.019-.451.038l-1.279.056H9.391c-.808 0-1.617-.075-2.407-.169a6.066 6.066 0 01-1.166-.207c-.658-.188-1.26-.507-1.748-.995-.32-.32-.546-.696-.771-1.09-.188-.338-.282-.733-.358-1.109-.056-.282-.131-.564-.169-.845a4.105 4.105 0 01-.056-.677c-.02-.375-.038-.77-.057-1.146-.018-.413-.018-.827-.018-1.24v-4.397c0-.62.037-1.259.056-1.879.019-.657.094-1.296.17-1.935.112-.94.47-1.766 1.127-2.461.264-.282.602-.489.922-.677.489-.3 1.034-.45 1.598-.526.32-.037.658-.094.978-.15.17-.019.32-.019.489-.019l1.222-.056h5.566c.508 0 .997.037 1.505.037.47 0 .94.057 1.41.094.526.057 1.072.113 1.58.282.564.188 1.071.47 1.485.883.3.282.508.62.715.958.282.489.432 1.015.526 1.56.094.564.15 1.108.17 1.672.093 1.691.037 3.382.056 5.092.037.545.037 1.071.018 1.616z" fill="#000"/><path d="M18.041 10.023a6.296 6.296 0 00-1.372-1.992c-.546-.545-1.148-.977-1.843-1.259-.753-.319-1.524-.45-2.332-.45a5.977 5.977 0 00-2.219.357c-1.542.563-2.651 1.615-3.404 3.043-.62 1.203-.733 2.48-.545 3.815a5.59 5.59 0 001.523 3.062c1.09 1.146 2.407 1.842 4.006 1.954.62.038 1.26.02 1.861-.112a5.764 5.764 0 003.122-1.785c1.09-1.184 1.654-2.574 1.654-4.19-.018-.245-.018-.489-.056-.714-.019-.62-.17-1.184-.395-1.729zm-3.065 5.411a3.658 3.658 0 01-2.068.921c-1.298.15-2.426-.188-3.366-1.109-.527-.507-.903-1.09-1.072-1.803-.508-2.142.602-3.965 2.332-4.716.545-.245 1.109-.301 1.71-.301 1.938.038 3.348 1.466 3.724 2.931.094.357.132.714.132 1.071.018 1.221-.47 2.217-1.392 3.006zM19.677 4.931a1.303 1.303 0 00-.808-.338 1.415 1.415 0 00-1.035.376c-.62.545-.677 1.353-.15 1.973.545.639 1.354.733 1.974.206.339-.281.564-.657.564-1.146 0-.037 0-.112-.018-.169-.038-.376-.245-.676-.527-.902z" fill="#000"/></svg>