<svg width="49" height="53" viewBox="0 0 49 53" fill="none" xmlns="http://www.w3.org/2000/svg"><path d="M12.319 29.417c2.986 0 5.96-.897 8.6-2.584l.239-.154-.97-1.512-.24.154c-4.28 2.74-9.507 3.064-13.318.822a9.375 9.375 0 01-3.656-3.877c-.91-1.785-1.296-3.882-1.155-6.234.15-2.381.928-4.53 2.251-6.212A9.106 9.106 0 018.53 6.72c2.692-.811 5.286-.093 6.775 1.873l.17.227 1.433-1.085-.172-.226c-1.955-2.582-5.298-3.542-8.721-2.508a10.913 10.913 0 00-5.35 3.707C1.113 10.675.204 13.174.032 15.921c-.323 5.164 1.75 9.454 5.686 11.77 1.921 1.13 4.202 1.726 6.6 1.726z" fill="#4B97B1"/><path d="M21.132 28.929l1.703.556.087-.27c1.047-3.206 1.49-6.314 1.319-9.234.145.032.29.068.434.106l.275.072.458-1.736-.275-.072a15.332 15.332 0 00-1.094-.246c-.49-3.078-1.75-5.68-3.474-7.149-1.363-1.162-2.858-1.462-4.104-.823-.718.368-1.21 1.085-1.464 2.128-.424 1.733-.177 4.468.655 7.347-.49.313-.94.682-1.343 1.1l-.19.21 1.328 1.205.191-.207c.187-.19.39-.363.604-.52.545 1.462 1.191 2.752 1.838 3.659l.164.232 1.463-1.042-.165-.23c-.62-.874-1.215-2.094-1.724-3.541a9.49 9.49 0 014.604-.77c.22 2.757-.196 5.845-1.208 8.95l-.082.275zm1.053-11.037c-1.675-.09-3.349.2-4.896.846-.653-2.436-.861-4.738-.542-6.05.128-.5.314-.84.54-.956.168-.085.353-.129.541-.128.474 0 1.026.246 1.578.72.618.532 2.112 2.117 2.779 5.568z" fill="#4B97B1"/><path d="M33.56 16.667c.227 1.985.782 3.601 1.65 4.817 1.068 1.494 2.585 2.35 4.508 2.548l.282.029.183-1.787-.282-.028c-1.41-.145-2.464-.735-3.23-1.806-1.335-1.867-1.505-4.83-1.41-6.986.064-1.469.248-2.93.549-4.37l.061-.268-1.722-.45-3.134 10.571-6.143-8.635-1.503.883.111.236c1.45 3.054 3.404 8.697 2.48 10.834a1.17 1.17 0 01-.75.716l-.188.06-.085 1.88.344-.054c1.062-.168 1.975-1.082 2.328-1.9.565-1.308.5-3.318-.194-5.991l3.307 4.65 1.44-.24 1.397-4.709z" fill="#4B97B1"/><path d="M36.942 11.83c-.92 2.143-.718 4.745.539 6.965.966 1.704 2.902 2.763 5.053 2.763h.128a6.238 6.238 0 005.49-3.429c1.194-2.308.769-5.625-1.013-7.88-1.487-1.88-3.628-2.637-5.87-2.078a6.246 6.246 0 00-4.327 3.659zm1.65.707a4.488 4.488 0 013.11-2.625 4.193 4.193 0 011.003-.128c1.545 0 2.558.989 3.024 1.579 1.344 1.699 1.698 4.252.825 5.94a4.465 4.465 0 01-3.928 2.459c-1.539.03-2.922-.686-3.583-1.852-.982-1.733-1.15-3.741-.45-5.373zM21.681 40.526c-.023-3.116.154-6.23.532-9.323l.082-.621-.554-.285a8.007 8.007 0 00-3.334-.77c-1.766-.026-4.373.514-6.768 3.254l-.497.571.478.586c1.132 1.392 4.266 5.91 3.824 8.336l-.05.28 1.766.32.052-.28c.293-1.616-.34-3.773-1.884-6.412a30.477 30.477 0 00-1.834-2.753c2.736-2.709 5.566-2.215 6.855-1.772a74.669 74.669 0 00-.463 8.882c.097 6.84 1.48 10.811 4.103 11.799l.266.1.633-1.68-.257-.095c-1.796-.676-2.864-4.37-2.95-10.137zM30.806 25.456c-.676-.178-1.502.147-1.77 1.114a1.632 1.632 0 00.385 1.612c.272.273.64.428 1.026.431.124 0 .248-.017.368-.05.513-.143.897-.562 1.046-1.154.196-.77-.146-1.713-1.055-1.953zM26.05 28.894c.238.209.543.325.86.327a1.403 1.403 0 001.015-.462 1.54 1.54 0 00.385-1.585 1.733 1.733 0 00-1.282-1.154 1.273 1.273 0 00-1.25.481c-.568.741-.325 1.872.272 2.393z" fill="#4B97B1"/><path d="M31.032 38.647c1.637-.751 2.479-1.733 2.894-2.426.96-1.592.816-3.408-.385-4.855-1.575-1.902-3.966-2.367-6.243-1.211a7.16 7.16 0 00-3.73 7.43 17.982 17.982 0 01-.921-.164l-.325-.07-.046 1.817.232.049c.631.128 1.079.197 1.59.256.955 2.34 2.705 3.292 4.02 3.68a7.358 7.358 0 002.072.284c2.173 0 4.45-.861 5.94-2.248l.208-.193-1.223-1.315-.208.192c-1.612 1.5-4.254 2.154-6.284 1.556a4.232 4.232 0 01-2.437-1.826c1.83.001 3.46-.32 4.846-.956zm1.128-6.136c.7.846.784 1.86.228 2.784-1.04 1.726-3.569 2.624-6.957 2.474-.618-2.74.863-5.089 2.683-6.012 1.508-.767 3.021-.485 4.046.754z" fill="#4B97B1"/><path d="M45.246 37.864a12.375 12.375 0 01-1.026-.445l-.23-.112-.135.217c-1.981 3.192-5.014 5.9-8.539 7.611-3.743 1.823-7.736 2.414-11.56 1.706l-.451-.083.14.488c.008.03.016.06.025.087.124.426.282.84.473 1.24l.067.128.147.021c.917.134 1.843.2 2.77.2 3.116 0 6.205-.734 9.18-2.18 3.884-1.89 7.21-4.88 9.363-8.418l.147-.243-.33-.2-.04-.017zM19.414 46.343l-.033-.174-.17-.049c-3.549-1.004-6.869-3.176-9.352-6.116-2.665-3.155-4.188-7.182-4.178-11.058v-.169l-.148-.082a10.278 10.278 0 01-.304-.17 12.495 12.495 0 01-.949-.622l-.425-.299-.025.523c-.202 4.473 1.54 9.35 4.657 13.043 2.864 3.39 6.711 5.821 10.834 6.844l.276.07.1-.404-.017-.068c-.096-.394-.18-.818-.266-1.269zM47.505 20.591l-.307.257a7.14 7.14 0 01-1.056.736l-.206.117.077.221c1.24 3.603.571 9.13-.384 11.733l-.089.238.227.114c.378.189.767.353 1.166.493l.256.092.098-.256c1.093-2.914 1.96-9.178.36-13.369l-.142-.376zM15.084 4.776c.247.142.486.298.717.466l.177.128.17-.139c2.713-2.202 7.587-3.255 12.721-2.748 4.929.486 9.106 2.308 11.164 4.86l.128.154.19-.065c.245-.085.468-.153.685-.207.182-.044.372-.084.566-.116l.445-.073-.257-.37C39.654 3.588 34.653 1.248 29.05.696c-5.752-.569-11.215.707-14.255 3.334l-.215.186.468.54.037.02z" fill="#4B97B1"/><path d="M40.662 29.4a14.464 14.464 0 002.18-6.57l.024-.31h-.337a7.46 7.46 0 01-1.154-.09l-.304-.048-.023.306c-.284 3.668-2.04 6.207-3.472 7.862a30.863 30.863 0 00-.484-1.1 43.66 43.66 0 00-3.454-6.11l-.129-.189-1.816.415.232.343a51.22 51.22 0 013.536 6.295c.285.616.54 1.22.76 1.795-.228.228-.45.446-.66.653l-.347.342 1.259 1.283.348-.341.026-.027c.55 2.063.453 3.507-.285 4.19l-.208.192 1.218 1.318.21-.192c1.42-1.315 1.59-3.659.504-6.972.402-.432.77-.851 1.102-1.27a10.615 10.615 0 004.557 5.001 11.95 11.95 0 003.906 1.41l.281.04.239-1.78-.271-.034c-.056-.01-5.798-.87-7.438-6.412z" fill="#4B97B1"/></svg>