<svg width="28" height="16" viewBox="0 0 28 16" fill="none" xmlns="http://www.w3.org/2000/svg"><path d="M22.3 15.805h-.104c-.025 0-.025-.027-.051-.027a2.809 2.809 0 01-1.653-.736c-.491-.447-.93-.973-1.395-1.446-.284-.315-.543-.63-.853-.92a2.116 2.116 0 00-.645-.42c-.207-.106-.44-.053-.62.104a1.894 1.894 0 00-.569.894c-.154.5-.18 1-.18 1.499 0 .552-.233.841-.75.947-.077 0-.206.026-.31.026-.568 0-1.136.026-1.704 0a9.936 9.936 0 01-1.24-.132c-1.033-.184-1.963-.604-2.867-1.183-1.008-.63-1.938-1.34-2.66-2.287a53.536 53.536 0 01-2.016-2.76C3.263 7.206 2.1 4.92 1.093 2.553c-.103-.21-.18-.447-.258-.658-.078-.315.051-.552.335-.657.155-.026.285-.079.44-.079 1.24-.026 2.505-.026 3.745-.026.44 0 .852.29 1.033.71.052.131.104.289.181.42.49 1.026.982 2.077 1.498 3.103.259.5.543.973.827 1.42.258.42.594.788 1.007 1.051.207.132.44.158.672.08.051-.027.103-.053.155-.106.155-.263.284-.526.31-.815.155-.947.232-1.92.155-2.892a6.73 6.73 0 00-.207-1.446c-.13-.473-.413-.789-.878-.947a2.155 2.155 0 00-.44-.105c-.128-.026-.154-.079-.103-.21.026-.053.052-.08.078-.132.232-.263.49-.473.826-.552.31-.079.62-.131.93-.158a25.643 25.643 0 011.99-.078c.645 0 1.29.026 1.937.157.49.105.8.368.904.894.026.21.077.42.077.631 0 .789-.051 1.604-.051 2.393 0 .789 0 1.577.025 2.392 0 .29.104.579.31.815.155.184.491.29.698.08.31-.29.62-.553.878-.895a21.091 21.091 0 002.17-3.68c.232-.5.439-1.026.646-1.525.129-.342.387-.5.723-.526h.258c.93 0 1.86 0 2.79-.027.439 0 .878-.026 1.317-.026.31 0 .594.026.852.158.181.105.31.263.285.473 0 .158-.026.316-.078.473-.18.605-.49 1.157-.826 1.71-.672 1.077-1.473 2.076-2.222 3.102-.361.473-.697.973-1.033 1.498-.284.421-.207.868.103 1.262.052.08.13.158.207.237.594.605 1.214 1.21 1.808 1.814.62.631 1.214 1.315 1.679 2.077.13.237.258.473.284.736.078.526-.103.842-.594.973-.207.053-.44.08-.672.08-1.11.025-2.195.025-3.306.052-.077-.027-.155 0-.258 0z" fill="#000"/></svg>