<svg width="34" height="20" viewBox="0 0 34 20" fill="none" xmlns="http://www.w3.org/2000/svg"><path d="M27.675 20h-.133c-.034 0-.034-.034-.067-.034-.798-.069-1.53-.412-2.13-.96-.631-.584-1.197-1.27-1.796-1.888-.366-.411-.698-.823-1.097-1.2-.233-.24-.533-.412-.832-.55-.266-.136-.566-.068-.799.138a2.477 2.477 0 00-.732 1.166c-.2.652-.232 1.304-.232 1.956 0 .72-.3 1.098-.965 1.235-.1 0-.266.034-.4.034-.731 0-1.463.034-2.195 0-.532-.034-1.065-.069-1.597-.171-1.33-.24-2.528-.79-3.693-1.544-1.297-.823-2.495-1.75-3.426-2.985a69.836 69.836 0 01-2.595-3.602C3.156 8.782 1.659 5.798.36 2.71.228 2.436.128 2.127.03 1.852c-.1-.411.066-.72.432-.857.2-.034.366-.103.566-.103C2.623.858 4.254.858 5.85.858c.565 0 1.097.377 1.33.926.067.171.133.377.233.549.632 1.338 1.264 2.71 1.93 4.048.332.652.698 1.27 1.064 1.852.333.55.766 1.03 1.298 1.372a.967.967 0 00.865.103c.066-.034.133-.068.2-.137.199-.343.365-.686.399-1.063.2-1.235.299-2.505.2-3.774-.034-.652-.1-1.27-.267-1.887-.166-.617-.532-1.029-1.131-1.235a2.748 2.748 0 00-.566-.137c-.166-.034-.2-.103-.133-.274.034-.069.067-.103.1-.172.3-.343.632-.617 1.065-.72.399-.103.798-.172 1.197-.206C14.5.034 15.365 0 16.197 0c.832 0 1.663.034 2.495.206.632.137 1.032.48 1.165 1.166.033.275.1.55.1.824 0 1.029-.067 2.092-.067 3.121 0 1.03 0 2.059.033 3.122 0 .377.133.755.4 1.064.199.24.631.377.898.102.399-.377.798-.72 1.13-1.166a27.608 27.608 0 002.795-4.803c.3-.651.566-1.338.832-1.99.166-.445.5-.651.932-.685h.332c1.198 0 2.396 0 3.593-.035.566 0 1.131-.034 1.697-.034.4 0 .765.034 1.098.206.233.137.399.343.366.617 0 .206-.034.412-.1.618-.233.789-.632 1.51-1.065 2.23-.865 1.406-1.896 2.71-2.86 4.048-.466.617-.899 1.269-1.331 1.955-.366.549-.267 1.132.133 1.647.066.103.166.206.266.308.765.79 1.563 1.579 2.328 2.367.799.824 1.564 1.716 2.163 2.71.166.31.333.618.366.961.1.686-.133 1.098-.765 1.27a3.523 3.523 0 01-.865.102c-1.43.035-2.828.035-4.259.069-.1-.034-.2 0-.332 0z" fill="#fff"/></svg>