<svg width="37" height="32" viewBox="0 0 37 32" fill="none" xmlns="http://www.w3.org/2000/svg"><path d="M34.3 3.143C32.475 1.116 29.944 0 27.172 0c-3.899 0-6.367 2.28-7.751 4.192-.36.496-.665.993-.921 1.462a13.843 13.843 0 00-.921-1.462C16.195 2.279 13.727 0 9.829 0c-2.773 0-5.305 1.116-7.13 3.144C.96 5.077 0 7.667 0 10.436c0 3.014 1.202 5.817 3.783 8.822 2.306 2.685 5.624 5.454 9.467 8.659a439.447 439.447 0 014.489 3.78l.047.04c.204.176.46.263.714.263.255 0 .51-.088.714-.263l.047-.04c1.577-1.35 3.057-2.586 4.49-3.78 3.841-3.205 7.16-5.974 9.466-8.66C35.798 16.254 37 13.45 37 10.437c0-2.769-.959-5.359-2.7-7.293zM22.344 26.302A498.28 498.28 0 0018.5 29.53c-1.34-1.14-2.61-2.2-3.844-3.23-7.52-6.273-12.488-10.417-12.488-15.865 0-2.252.766-4.343 2.158-5.89 1.408-1.563 3.362-2.424 5.502-2.424 2.972 0 4.894 1.793 5.982 3.297a12.473 12.473 0 011.66 3.23c.145.437.56.732 1.03.732s.885-.295 1.03-.732c.174-.522.684-1.882 1.66-3.23 1.088-1.504 3.01-3.297 5.982-3.297 2.14 0 4.094.861 5.502 2.425 1.392 1.546 2.158 3.637 2.158 5.889 0 5.448-4.968 9.592-12.488 15.866z" fill="#D50C3C"/><path d="M22.344 26.302A498.28 498.28 0 0018.5 29.53c-1.34-1.14-2.61-2.2-3.844-3.23-7.52-6.273-12.488-10.417-12.488-15.865 0-2.252.766-4.343 2.158-5.89 1.408-1.563 3.362-2.424 5.502-2.424 2.972 0 4.894 1.793 5.982 3.297a12.473 12.473 0 011.66 3.23c.145.437.56.732 1.03.732s.885-.295 1.03-.732c.174-.522.684-1.882 1.66-3.23 1.088-1.504 3.01-3.297 5.982-3.297 2.14 0 4.094.861 5.502 2.425 1.392 1.546 2.158 3.637 2.158 5.889 0 5.448-4.968 9.592-12.488 15.866z" fill="#D50C3C"/></svg>