<svg width="21" height="18" viewBox="0 0 21 18" fill="none" xmlns="http://www.w3.org/2000/svg"><path d="M19.468 1.768C18.432.628 16.995 0 15.422 0c-2.213 0-3.614 1.282-4.4 2.358-.203.279-.376.559-.522.822a7.776 7.776 0 00-.523-.822C9.192 1.282 7.791 0 5.578 0c-1.573 0-3.01.628-4.046 1.768C.544 2.856 0 4.313 0 5.87c0 1.696.682 3.272 2.147 4.963 1.31 1.51 3.192 3.067 5.373 4.87.813.672 1.653 1.367 2.548 2.126l.027.023a.625.625 0 00.81 0l.027-.023c.895-.76 1.735-1.454 2.548-2.126 2.18-1.803 4.064-3.36 5.373-4.87C20.318 9.143 21 7.566 21 5.87c0-1.557-.544-3.014-1.532-4.102zm-6.786 13.027c-.7.579-1.422 1.175-2.182 1.816-.76-.641-1.481-1.237-2.182-1.817C4.05 11.266 1.23 8.934 1.23 5.87c0-1.266.435-2.443 1.225-3.312.8-.88 1.908-1.364 3.123-1.364 1.687 0 2.778 1.008 3.395 1.854.554.759.843 1.523.942 1.817a.614.614 0 00.585.412.614.614 0 00.585-.412 6.992 6.992 0 01.942-1.817c.618-.846 1.708-1.854 3.395-1.854 1.215 0 2.324.484 3.123 1.364.79.87 1.224 2.046 1.224 3.312 0 3.065-2.82 5.396-7.087 8.925z" fill="#000"/></svg>